# xmcd
#
# Track frame offsets: 
#        182
#        12497
#        28802
#        45422
#        61892
#        75537
#        93052
#        110312
#        122815
#        142712
#        172297
#        188477
#        216997
#        233035
#        247752
#        272770
#        293557
#
# Disc length: 4195 seconds
#
# Revision: 3
# Processed by: cddbd v1.5.2PL0 Copyright (c) Steve Scherf et al.
# Submitted via: ExactAudioCopyFreeDBPlugin 1.0
#
DISCID=dc106111
DTITLE=Ray Charles - Standards
DYEAR=1998
DGENRE=Soul
TTITLE0=It Had To Be You
TTITLE1=Am I Blue
TTITLE2=Come Rain or Come Shine
TTITLE3=Georgia on My Mind
TTITLE4=Moonlight in Vermont
TTITLE5=Ruby
TTITLE6=Stella by Starlight
TTITLE7=Margie
TTITLE8=That Lucky Old Sun
TTITLE9=Without a Song (Parts 1 and 2)
TTITLE10=Without Love (There is Nothing)
TTITLE11=Makin' Whoopee
TTITLE12=Cry
TTITLE13=Love is Here to Stay
TTITLE14=Ol' Man River
TTITLE15=Willow, Weep for Me
TTITLE16=Oh, What a Beautiful Morning
EXTD=
EXTT0=
EXTT1=
EXTT2=
EXTT3=
EXTT4=
EXTT5=
EXTT6=
EXTT7=
EXTT8=
EXTT9=
EXTT10=
EXTT11=
EXTT12=
EXTT13=
EXTT14=
EXTT15=
EXTT16=
PLAYORDER=
